<?xml version="1.0" encoding="utf-8"?>
<!-- Generator: Adobe Illustrator 25.1.0, SVG Export Plug-In . SVG Version: 6.00 Build 0)  -->
<svg version="1.1" id="Layer_1" xmlns="http://www.w3.org/2000/svg" xmlns:xlink="http://www.w3.org/1999/xlink" x="0px" y="0px"
	 viewBox="0 0 1600 1200" style="enable-background:new 0 0 1600 1200;" xml:space="preserve">
<style type="text/css">
	.st0{fill:#FDFDFD;}
	.st1{fill:#FCC236;}
	.st2{fill:#595A5B;}
	.st3{fill:#59595A;}
	.st4{fill:none;}
</style>
<g>
	<path class="st0" d="M420.8,1002.2"/>
	<path class="st1" d="M551.8,625.4c24.9-12.1,52.8-13.7,80-22.8c-26.4-7.6-51.7-14.9-76.9-22.2c90.8-5.9,179.7,8.6,269.3,22.5
		C797.4,615.7,613.4,632.6,551.8,625.4z"/>
	<path class="st1" d="M284.7,622.3c-44.7,4.8-89.2,3.8-133.7,0c-44.5-3.9-88.6-10.4-132.9-17.1c23.2-10.4,216.9-31.6,273.1-29.7
		c-13.4,7.9-26.9,11.8-40.5,15.3c-13.7,3.5-27.7,6.2-41,12.3C234.7,609.5,259.7,615.9,284.7,622.3z"/>
	<path class="st1" d="M397,737.2c8.8,23.5,15,47.8,21.8,71.9c6.2-23.1,12.3-46.1,18.5-69.2c10.2,86.8-2.8,172.2-15.9,257.5
		C404.1,911.6,391.2,825.4,397,737.2z"/>
	<path class="st2" d="M398.5,463.3c-8.1-87.3,7.5-172.5,22.6-257.8c12.7,85.3,26.1,170.5,16.2,257.3c-6.1-23.4-12.2-46.9-18.7-71.8
		C411.8,416,405.1,439.6,398.5,463.3z"/>
	<path class="st3" d="M445.4,629.3c0-20.5,0-41,0-61.4c0-1.6-0.1-3.1-0.1-4.7c0.1-6.9,2.5-9.2,9.6-9.1c6.7,0.1,9.1,2.4,9,9.2
		c-0.2,28.5-0.5,57-0.7,85.5c0,0.9,0.1,1.7,0.2,2.6c0.5,4.9,2.3,10.4-3.8,13.2c-6.7,3.1-15.3,1.4-19.7-3.8c-1.5-1.7-2.6-3.7-3.8-5.6
		c-12.6-21.4-25.2-42.8-37.7-64.2c-1.1-1.9-2.3-3.8-4.3-7c0,3.1,0,4.7,0,6.3c0,21.6,0,43.1,0,64.7c0,9-5,12.6-13.6,9.9
		c-3.8-1.2-5-4.1-5-7.7c0.1-28.5,0.2-57,0.3-85.5c0-2.9-0.4-5.9-0.4-8.8c0-5.4,2.3-8,7.5-8.9c11.4-2,16.9,0.7,22.8,10.8
		c12.8,21.7,25.7,43.2,38.6,64.9C444.7,629.5,445,629.4,445.4,629.3z"/>
	<path class="st1" d="M361.6,522.8c-15.3-8.2-30.5-16.4-45.8-24.6c-0.3,0.2-0.6,0.4-0.8,0.5c6.9,13.1,13.8,26.1,21.3,40.2
		c-8.9-3.3-15-8.7-20.8-14.3c-38.2-36.5-70.2-77.9-96.7-123.5c-0.3-0.5-1-1.1-0.2-2.1C269.9,436,321,473.3,361.6,522.8z"/>
	<path class="st1" d="M614.6,407.5c-13.2,30.8-84.7,116.3-114.5,136.2c8.8-15.8,17.1-30.7,26.1-46.8c-19.1,7.9-33.9,21.9-53.6,25.5
		C480.9,506,582.3,424,614.6,407.5z"/>
	<path class="st1" d="M619.2,798.9c-29.8-13.1-130-97-142.9-120.4c16.9,9.4,32.7,18.2,48.5,27c0.2-0.2,0.5-0.4,0.7-0.6
		c-8-14.5-15.9-28.9-24.1-43.7C519.8,667.8,604.8,767.4,619.2,798.9z"/>
	<path class="st1" d="M350.7,686.3c-35.5,49.3-85.4,81.9-133.3,117c5.6-18,95-128.9,118.2-146.5c-1.7,18.5-14.4,31.8-21.7,49.2
		C327.1,698.9,338.9,692.6,350.7,686.3z"/>
</g>
<rect x="824.2" y="353.2" class="st4" width="28.6" height="0"/>
</svg>
